<?xml version="1.0" encoding="utf-8" ?><svg xmlns="http://www.w3.org/2000/svg" xmlns:xlink="http://www.w3.org/1999/xlink" width="891" height="712" viewBox="64.2 156.9 891.0 712.3"><path fill="#F79748" d="M480.37 307.802C559.709 304.52 626.652 366.249 629.8 445.594C632.948 524.939 571.105 591.777 491.756 594.791C412.595 597.798 345.951 536.135 342.811 456.98C339.67 377.825 401.22 311.077 480.37 307.802Z"/><path fill="#FBB94A" d="M478.551 333.205C543.891 328.903 600.323 378.439 604.526 443.786C608.729 509.133 559.108 565.49 493.755 569.594C428.541 573.689 372.331 524.197 368.137 458.99C363.943 393.783 413.35 337.498 478.551 333.205Z"/><path fill="#DBBEA0" d="M660.805 682.953C668.028 662.933 680.886 645.43 697.829 632.55C722.389 613.816 749.261 608.227 779.504 612.263C788.146 613.913 796.452 616.499 804.74 619.423C809.306 621.414 814.953 623.853 819.14 626.461C827.682 631.411 847.079 645.777 851.169 654.386L851.288 654.432C872.628 643.958 909.159 631.689 933.39 636.862C938.832 638.024 941.845 642.544 943.29 647.599C938.38 671.698 908.015 694.017 889.442 708.531C885.494 711.615 877.209 716.72 874.211 719.91C874.324 725.634 873.737 732.798 873.367 738.609C872.465 743.523 871.283 749.81 869.742 754.565C860.134 783.447 843.719 804.721 816.005 818.553C790.028 831.637 759.882 833.73 732.346 824.362C728.091 822.906 721.624 820.317 717.688 818.026C714.309 816.405 710.286 813.765 707.029 811.755C704.86 810.938 694.601 816.249 690.757 817.54C669.297 824.759 646.562 833.821 623.64 833.395C615.376 833.242 601.473 827.368 604.137 817.779C610.672 794.251 643.345 769.1 661.771 755.182L661.904 754.734C656.739 741.851 655.824 731.54 655.046 718.065C655.102 713.228 655.382 708.396 655.884 703.585C657.084 695.842 658.432 690.334 660.805 682.953ZM867.704 687.738C889.009 667.705 888.042 652.916 855.504 660.418C860.159 668.65 866.352 678.294 867.704 687.738Z"/><path fill="#FCD9BB" d="M660.805 682.953C668.028 662.933 680.886 645.43 697.829 632.55C722.389 613.816 749.261 608.227 779.504 612.263C788.146 613.913 796.452 616.499 804.74 619.423C809.306 621.414 814.953 623.853 819.14 626.461C827.682 631.411 847.079 645.777 851.169 654.386C841.803 658.917 832.285 670.329 823.779 676.688C786.409 704.627 743.991 729.504 699.517 744.105C692.107 746.524 684.623 748.708 677.075 750.655C673.336 751.614 665.041 753.484 661.904 754.734C656.739 741.851 655.824 731.54 655.046 718.065C655.102 713.228 655.382 708.396 655.884 703.585C657.084 695.842 658.432 690.334 660.805 682.953Z"/><path fill="#F79748" d="M660.805 682.953C668.028 662.933 680.886 645.43 697.829 632.55C722.389 613.816 749.261 608.227 779.504 612.263C759.168 656.755 708.865 683.888 660.805 682.953Z"/><path fill="#FCD9BB" d="M779.504 612.263C788.146 613.913 796.452 616.499 804.74 619.423C798.109 628.477 784.296 643.699 775.79 650.885C747.242 674.999 704.487 696.575 667.465 702.246C663.626 702.86 659.762 703.307 655.884 703.585C657.084 695.842 658.432 690.334 660.805 682.953C708.865 683.888 759.168 656.755 779.504 612.263Z"/><path fill="#F79748" d="M804.74 619.423C809.306 621.414 814.953 623.853 819.14 626.461C789.559 670.379 721.616 705.486 670.731 714.978C666.928 715.688 658.193 717.058 655.046 718.065C655.102 713.228 655.382 708.396 655.884 703.585C659.762 703.307 663.626 702.86 667.465 702.246C704.487 696.575 747.242 674.999 775.79 650.885C784.296 643.699 798.109 628.477 804.74 619.423Z"/><path fill="#F79748" d="M851.169 654.386L851.288 654.432C853.023 656.55 854.343 657.923 855.504 660.418C860.159 668.65 866.352 678.294 867.704 687.738C863.493 693.174 851.552 701.085 845.46 705.364C803.995 734.84 759.211 759.343 712.03 778.37C703.498 781.815 690.242 787.457 681.275 788.722C673.25 779.001 670.924 773.317 665.12 762.657C664.014 760.618 663.14 757.751 661.771 755.182L661.904 754.734C665.041 753.484 673.336 751.614 677.075 750.655C684.623 748.708 692.107 746.524 699.517 744.105C743.991 729.504 786.409 704.627 823.779 676.688C832.285 670.329 841.803 658.917 851.169 654.386Z"/><path fill="#F79748" d="M717.688 818.026C723.543 814.556 736.13 810.246 743.483 806.565C771.269 792.651 799.824 778.817 828.747 767.461C842.527 762.05 855.754 758.826 869.742 754.565C860.134 783.447 843.719 804.721 816.005 818.553C790.028 831.637 759.882 833.73 732.346 824.362C728.091 822.906 721.624 820.317 717.688 818.026Z"/><path fill="#FCD9BB" d="M831.632 748.68C844.236 744.656 860.172 739.239 873.367 738.609C872.465 743.523 871.283 749.81 869.742 754.565C855.754 758.826 842.527 762.05 828.747 767.461C799.824 778.817 771.269 792.651 743.483 806.565C736.13 810.246 723.543 814.556 717.688 818.026C714.309 816.405 710.286 813.765 707.029 811.755C711.81 809.02 721.827 805.274 727.483 802.835C737.406 798.555 747.195 793.971 756.836 789.09C772.271 781.364 787.915 773.817 803 765.471C812.727 760.089 821.71 753.664 831.632 748.68Z"/><path fill="#173D7A" d="M665.12 762.657C670.924 773.317 673.25 779.001 681.275 788.722C674.643 790.281 660.526 793.005 654.896 788.016C646.91 780.939 660.187 767.93 665.12 762.657Z"/><path fill="#F79748" d="M831.632 748.68C832.365 746.809 869.462 723.032 874.211 719.91C874.324 725.634 873.737 732.798 873.367 738.609C860.172 739.239 844.236 744.656 831.632 748.68Z"/><path fill="#429C89" d="M316.232 710.984C334.865 691.997 353.848 681.693 380.999 681.361C404.959 680.872 428.097 690.097 445.147 706.936C446.801 708.569 448.433 710.379 449.989 712.111C459.56 724.186 462.802 730.317 467.629 745.32C470.997 758.567 472.84 764.747 471.389 778.432C468.825 791.267 467.665 795.049 462.695 807.01C459.356 813.152 453.297 823.618 448.033 828.152C446.671 829.678 445.256 831.156 443.789 832.582C427.049 848.553 404.627 857.183 381.498 856.557C356.79 856.098 334.899 845.882 317.888 828.202C313.184 823.686 306.066 813.068 303.132 807.382C298.059 798.437 295.869 787.219 294.883 777.1C293.163 767.71 295.671 753.772 298.056 744.575C302.455 730.07 306.867 722.454 316.232 710.984Z"/><path fill="#9BD0AB" d="M316.232 710.984C334.865 691.997 353.848 681.693 380.999 681.361C404.959 680.872 428.097 690.097 445.147 706.936C446.801 708.569 448.433 710.379 449.989 712.111C459.56 724.186 462.802 730.317 467.629 745.32C459.472 747.458 442.661 748.244 433.909 748.72C394.445 751.17 354.851 750.584 315.477 746.966C311.313 746.552 301.764 745.71 298.056 744.575C302.455 730.07 306.867 722.454 316.232 710.984Z"/><path fill="#429C89" d="M316.232 710.984C334.865 691.997 353.848 681.693 380.999 681.361C404.959 680.872 428.097 690.097 445.147 706.936C446.801 708.569 448.433 710.379 449.989 712.111C446.321 713.589 436.576 714.848 432.142 715.259C401.458 718.103 369.501 719.574 338.824 716.416C330.154 715.524 324.213 714.222 316.232 710.984Z"/><path fill="#429C89" d="M303.132 807.382C324.202 806.76 346.009 807.053 367.134 807.061L462.695 807.01C459.356 813.152 453.297 823.618 448.033 828.152C446.671 829.678 445.256 831.156 443.789 832.582C427.049 848.553 404.627 857.183 381.498 856.557C356.79 856.098 334.899 845.882 317.888 828.202C313.184 823.686 306.066 813.068 303.132 807.382Z"/><path fill="#9BD0AB" d="M317.888 828.202C344.082 826.649 375.666 827.809 402.312 827.779L431.468 827.735C435.5 827.729 444.464 827.53 448.033 828.152C446.671 829.678 445.256 831.156 443.789 832.582C427.049 848.553 404.627 857.183 381.498 856.557C356.79 856.098 334.899 845.882 317.888 828.202Z"/><path fill="#9BD0AB" d="M294.883 777.1L365.933 777.507C378.129 777.508 465.636 776.182 471.389 778.432C468.825 791.267 467.665 795.049 462.695 807.01L367.134 807.061C346.009 807.053 324.202 806.76 303.132 807.382C298.059 798.437 295.869 787.219 294.883 777.1Z"/><path fill="#DBBEA0" d="M120.864 376.985C132.748 355.944 155.073 342.965 179.238 343.046C203.403 343.128 225.639 356.257 237.381 377.378C241.444 384.685 244.099 392.69 245.207 400.976C246.483 410.519 245.681 420.226 242.856 429.43C240.702 436.445 237.407 443.057 233.103 449C220.443 466.483 200.113 476.769 178.528 476.612C156.943 476.456 136.765 465.876 124.359 448.211C120.382 442.548 117.309 436.301 115.251 429.694C112.354 420.395 111.526 410.574 112.825 400.921C113.958 392.504 116.686 384.38 120.864 376.985Z"/><path fill="#A07958" d="M115.251 429.694C141.58 428.838 169.386 429.075 195.749 428.977C209.343 428.926 229.776 428.318 242.856 429.43C240.702 436.445 237.407 443.057 233.103 449C220.443 466.483 200.113 476.769 178.528 476.612C156.943 476.456 136.765 465.876 124.359 448.211C120.382 442.548 117.309 436.301 115.251 429.694Z"/><path fill="#DBBEA0" d="M124.359 448.211C136.346 448.661 230.798 447.883 233.103 449C220.443 466.483 200.113 476.769 178.528 476.612C156.943 476.456 136.765 465.876 124.359 448.211Z"/><path fill="#DBBEA0" d="M120.864 376.985C132.748 355.944 155.073 342.965 179.238 343.046C203.403 343.128 225.639 356.257 237.381 377.378C232.233 378.147 223.188 377.865 217.751 377.808L187.659 377.468C180.888 377.411 123.662 378.291 120.864 376.985Z"/><path fill="#A07958" d="M120.864 376.985C123.662 378.291 180.888 377.411 187.659 377.468L217.751 377.808C223.188 377.865 232.233 378.147 237.381 377.378C241.444 384.685 244.099 392.69 245.207 400.976C235.751 401.137 225.638 400.485 216.051 400.598C182.001 400.999 146.787 399.93 112.825 400.921C113.958 392.504 116.686 384.38 120.864 376.985Z"/><path fill="#4FAEED" d="M731.129 344.047C738.596 323.577 757.098 307.768 778.418 303.774C790.546 301.501 800.399 302.746 812.059 306.168C819.951 309.39 823.827 311.388 830.662 316.494C841.729 326.318 846.326 332.711 851.611 346.643C852.918 351.819 854.666 357.695 854.571 362.984C856.585 375.563 850.264 393.328 842.816 403.622C832.794 417.552 817.595 426.87 800.635 429.482C786.332 431.717 769.013 428.738 756.942 420.554C749.124 415.094 744.748 410.549 739.005 403.11C731.651 394.2 727.757 379.502 727.346 368.093C727.117 358.661 728.272 352.863 731.129 344.047Z"/><path fill="#B5D8F3" d="M731.129 344.047C738.596 323.577 757.098 307.768 778.418 303.774C790.546 301.501 800.399 302.746 812.059 306.168C819.951 309.39 823.827 311.388 830.662 316.494C806.109 349.555 767.901 366.666 727.346 368.093C727.117 358.661 728.272 352.863 731.129 344.047Z"/><path fill="#4FAEED" d="M731.129 344.047C738.596 323.577 757.098 307.768 778.418 303.774C790.546 301.501 800.399 302.746 812.059 306.168C796.259 321.191 772.581 334.474 751.731 339.818C745.295 341.468 736.53 342.405 731.129 344.047Z"/><path fill="#4FAEED" d="M854.571 362.984C856.585 375.563 850.264 393.328 842.816 403.622C832.794 417.552 817.595 426.87 800.635 429.482C786.332 431.717 769.013 428.738 756.942 420.554C783.378 403.941 812.175 389.226 840.107 375.248C844.697 372.951 849.324 371.092 853.841 368.541C854.607 367.335 854.502 364.549 854.571 362.984Z"/><path fill="#B5D8F3" d="M739.005 403.11C740.754 401.775 749.164 397.72 751.428 396.591L781.605 381.826C804.882 370.401 828.482 357.777 851.611 346.643C852.918 351.819 854.666 357.695 854.571 362.984C854.502 364.549 854.607 367.335 853.841 368.541C849.324 371.092 844.697 372.951 840.107 375.248C812.175 389.226 783.378 403.941 756.942 420.554C749.124 415.094 744.748 410.549 739.005 403.11Z"/><path fill="#EB562F" d="M124.194 671.439C150.804 670.846 172.886 691.877 173.59 718.484C174.293 745.091 153.354 767.261 126.75 768.075C99.9897 768.894 77.6614 747.804 76.9536 721.04C76.2457 694.277 97.4279 672.036 124.194 671.439Z"/><path fill="#FCD9BB" d="M522.137 168.879C525.96 169.849 533.358 178.411 536.328 181.492C532.975 184.885 526.777 190.178 523.012 193.101L522.575 193.361C519.557 192.93 511.837 184 509.27 181.2C512.553 176.686 517.605 172.126 522.137 168.879Z"/><path fill="#FCD9BB" d="M806.477 530.777C809.618 531.048 818.817 540.527 821.685 543.116C817.091 547.175 813.159 551.153 808.84 555.498L808.456 555.704C804.64 554.723 797.367 546.373 794.424 543.165C797.835 539.064 802.622 534.572 806.477 530.777Z"/><path fill="#173D7A" d="M810.313 227.992C812.794 229.698 820.447 238.023 822.655 240.467C819.884 244.163 814.496 249.629 810.79 252.318C807.63 250.833 800.647 243.118 797.963 240.283C802.049 236.155 806.166 232.058 810.313 227.992Z"/><path fill="#4FAEED" d="M628.94 251.551C632.652 253.646 637.726 259.266 640.806 262.519C636.973 266.386 632.786 270.444 628.456 273.739C624.628 270.642 619.589 265.851 615.816 262.467C619.824 258.008 623.996 254.857 628.94 251.551Z"/><path fill="#173D7A" d="M253.06 233.803C256.111 234.545 263.748 242.389 266.376 244.914C262.961 248.446 258.529 252.338 254.874 255.716L254.136 255.905C251.466 255.023 244.005 246.855 241.646 244.429C245.026 240.828 249.345 237.139 253.06 233.803Z"/><path fill="#B5D8F3" d="M326.03 229.378C329.066 231.527 335.436 238.167 338.788 241.147C334.99 244.903 331.07 248.615 326.79 251.811L326.368 251.799C322.552 249.504 318.013 244.393 314.854 241.02C318.17 236.884 322.212 233.063 326.03 229.378Z"/><path fill="#B5D8F3" d="M575.631 639.03C577.832 640.072 585.54 648.263 587.838 650.527C583.882 654.22 580.005 658.177 576.002 661.933C574.731 661.246 565.719 652.125 564.215 650.66C567.744 646.386 571.577 642.765 575.631 639.03Z"/><path fill="#4FAEED" d="M558.112 747.781C560.307 748.435 568.773 757.032 571.104 759.307C567.298 762.641 563.438 765.913 559.526 769.121L558.516 769.494C555.858 768.697 549.221 761.08 546.97 758.639C550.877 755.01 554.481 751.71 558.112 747.781Z"/><path fill="#4FAEED" d="M292.542 566.825C295.267 568.152 301.289 575.028 303.635 577.582C300.259 581.567 296.532 585.241 292.497 588.558C288.51 585.166 284.587 581.698 280.73 578.159C284.399 574.151 288.492 570.44 292.542 566.825Z"/><path fill="#4FAEED" d="M703.197 484.301C706.002 485.078 713.232 492.18 715.676 494.492C712.268 497.856 708.048 502.141 704.302 504.962C701.613 504.238 694.937 497.35 692.584 495.092C694.61 492.492 700.617 486.851 703.197 484.301Z"/><path fill="#FCD9BB" d="M232.561 540.397C234.549 541.561 240.435 547.352 242.9 549.465L233.203 559.112C229.996 556.792 226.007 552.377 223.407 549.435C226.099 546.601 229.636 543.416 232.561 540.397Z"/></svg>