<?xml version="1.0" encoding="utf-8" ?><svg xmlns="http://www.w3.org/2000/svg" xmlns:xlink="http://www.w3.org/1999/xlink" width="927" height="191" viewBox="47.8 653.6 927.2 190.9"><path fill="#22457E" d="M469.377 666.763C546.498 665.593 916.616 669.526 958.41 703.79C961.219 706.093 962.005 711.012 962.312 714.431C962.936 721.386 962.396 728.526 962.371 735.507C962.346 742.912 963.023 750.697 961.972 758.014C961.615 760.501 961.153 762.967 959.42 764.895C945.474 780.413 859.073 788.029 834.723 790.113C834.953 793.393 835.13 796.677 835.252 799.963C835.511 807.873 834.947 815.697 829.065 821.57C827.732 822.922 823.232 826.505 821.333 826.694C797.461 829.2 772.843 826.854 748.903 827.531C725.871 828.183 713.627 826.763 713.518 799.73C699.009 800.964 677.621 801.058 662.623 801.513C626.465 802.671 590.298 803.491 554.125 803.974C512.727 804.498 471.323 804.256 429.934 803.248C389.351 802.835 348.782 801.563 308.253 799.434C308.792 832.512 288.099 827.631 263.055 827.591C247.798 827.514 232.541 827.555 217.284 827.713C185.766 827.789 186.698 817.525 187.049 790.195C166.045 788.778 145.129 786.268 124.387 782.676C106.654 779.597 71.9751 775.885 61.5287 761.044C61.3976 760.159 61.297 759.27 61.2271 758.379C60.6988 751.525 60.8395 742.614 60.9146 735.422C60.9779 729.37 59.7859 708.283 63.2847 704.707C68.2095 699.673 81.3955 696.453 88.5289 694.637C135.214 682.751 185.86 679.161 233.604 675.757C312.082 670.3 390.711 667.3 469.377 666.763Z"/></svg>